# xmcd
#
# Track frame offsets:
#	183
#	17238
#	34373
#	56258
#	75008
#	94763
#	111925
#	129110
#	144803
#	162008
#	176965
#	196275
#
# Disc length: 2938 seconds
#
# Revision: 6
# Processed by: cddbd v1.5.2PL0 Copyright (c) Steve Scherf et al.
# Submitted via: EasyCDDAExtractor 15.3.0.1
#
DISCID=8d0b780c
DTITLE=Marta Sanchez - Mujer
DYEAR=1993
DGENRE=Latin
TTITLE0=Desesperada
TTITLE1=Amen
TTITLE2=De Mujer A Mujer
TTITLE3=Yo No Se
TTITLE4=Eso Es El Soul
TTITLE5=Nube De Verano
TTITLE6=Olvidate De Mi
TTITLE7=Lejos De Aquella Noche
TTITLE8=Tal Vez
TTITLE9=El Ultimo Rock
TTITLE10=Cuidado
TTITLE11=Desesperada (English Extended Version)
EXTD=YEAR: 1993 ID3G: 13
EXTT0=
EXTT1=
EXTT2=
EXTT3=
EXTT4=
EXTT5=
EXTT6=
EXTT7=
EXTT8=
EXTT9=
EXTT10=
EXTT11=
PLAYORDER=
